<mxfile host="app.diagrams.net" modified="2024-04-23T17:42:07.397Z" agent="Mozilla/5.0 (Windows NT 10.0; Win64; x64) AppleWebKit/537.36 (KHTML, like Gecko) Chrome/124.0.0.0 Safari/537.36" version="24.2.8" etag="oEuOe7cNgQ-K2ozc0Dqu" type="github">
  <diagram name="PÃ¡gina-1" id="LJ5x1NYgHh-6dW0O2vA7">
    <mxGraphModel>
      <root>
        <mxCell id="0" />
        <mxCell id="1" parent="0" />
      </root>
    </mxGraphModel>
  </diagram>
</mxfile>
